<?xml version="1.0" encoding="utf-8"?>
<!-- Generator: Adobe Illustrator 26.2.1, SVG Export Plug-In . SVG Version: 6.00 Build 0)  -->
<svg version="1.1" xmlns="http://www.w3.org/2000/svg" xmlns:xlink="http://www.w3.org/1999/xlink" x="0px" y="0px"
	 viewBox="0 0 342.6 265.3" style="enable-background:new 0 0 342.6 265.3;" xml:space="preserve">
<style type="text/css">
	.st0{fill:#4B1235;}
</style>
<g id="Background">
</g>
<g id="Objects">
	<g>
		<path class="st0" d="M307,99.8C283.6,50.2,222.9,28,173,28c-18.3,0-37.5,2.8-54.1,7.9C91,44.5,64.3,62.8,47.6,84.9
			c-16.8,22.1-20.7,60.9-8.7,86.6c10.9,23.1,30.5,42.2,56.9,55c22.9,11.2,50.3,17.3,77.1,17.3c18.1,0,37.3-2.9,54.2-8
			c28.2-8.7,54.9-27,71.4-49.1c9.6-12.8,15.2-31.3,15.5-50.7C314.3,122.5,311.8,110,307,99.8z M49.1,104.7c0.2-0.6,0.2-1.2,0.2-1.8
			c1.9-4.3,4.1-8.2,6.7-11.6C71.4,70.9,96.1,54,122,46c15.6-4.8,33.7-7.5,51-7.5c45.7,0,101.1,19.7,123.3,63.5
			c-0.2,0.8-0.2,1.7,0.1,2.6c0.4,1.3,3.5,13.1-9.8,17.8c-11.5,4-17.3,9.9-22.3,15.1c-3.7,3.8-6.9,7.1-12.1,9.5
			c-5.1,2.4-11.9,0.7-19-1.1c-8.6-2.1-18.4-4.5-27.5-0.2c-1,0.5-2.1,1-3.1,1.5c-10.5,5-21.3,10.3-32.4,9.8
			c-10.1-0.4-19.9-5.5-29.8-11.2c-9.2-5.2-19.3-2.6-28.2-0.2c-7.1,1.8-13.8,3.6-18.7,1.3c-5.2-2.4-8.4-5.7-12.1-9.5
			c-5.1-5.2-10.8-11.1-22.3-15.1C46,118,48.5,106.8,49.1,104.7z M290.1,180.4c-15.2,20.3-39.9,37.3-66,45.3
			c-15.9,4.9-34,7.6-51.1,7.6c-46.5,0-103-20.5-124.5-66.3c-5.6-12-7.2-27.6-5.1-42.5c2.7,3.2,6.6,6,12.1,7.9
			c9.2,3.2,13.6,7.7,18.2,12.5c4,4.2,8.2,8.5,15.2,11.7c8.4,3.9,17.2,1.6,25.8-0.7c7.7-2,14.9-3.9,20.4-0.8
			c11.1,6.3,22.2,12.1,34.6,12.6c0.6,0,1.1,0,1.7,0c13.1,0,25.1-5.8,35.8-10.9l3.1-1.5c5.7-2.7,12.9-1,20.5,0.9
			c8.6,2.1,17.5,4.3,26,0.4c7-3.2,11.2-7.5,15.2-11.7c4.7-4.8,9.1-9.3,18.2-12.5c6-2.1,10-5.2,12.7-8.8c0.5,3.9,0.7,8,0.7,12.2
			C303.3,152.8,298.3,169.4,290.1,180.4z"/>
		<path class="st0" d="M82.3,97.6c0.9,0,1.8-0.3,2.6-0.8l12.6-9c2-1.4,2.5-4.2,1-6.2c-1.4-2-4.2-2.5-6.2-1l-12.6,9
			c-2,1.4-2.5,4.2-1,6.2C79.5,96.9,80.9,97.6,82.3,97.6z"/>
		<path class="st0" d="M92.8,118.1c-0.8,2.3,0.4,4.9,2.7,5.7l14.9,5.3c0.5,0.2,1,0.3,1.5,0.3c1.8,0,3.6-1.1,4.2-3
			c0.8-2.3-0.4-4.9-2.7-5.7l-14.9-5.3C96.2,114.6,93.7,115.8,92.8,118.1z"/>
		<path class="st0" d="M127.2,73.7c0.9,1.3,2.3,2.1,3.8,2.1c0.8,0,1.7-0.2,2.4-0.7c2.1-1.3,2.7-4.1,1.4-6.2l-7.2-11.3
			c-1.3-2.1-4.1-2.7-6.2-1.4c-2.1,1.3-2.7,4.1-1.4,6.2L127.2,73.7z"/>
		<path class="st0" d="M252.4,99.8c0.9,1.3,2.3,2.1,3.8,2.1c0.8,0,1.7-0.2,2.4-0.7c2.1-1.3,2.7-4.1,1.4-6.2l-7.2-11.3
			c-1.3-2.1-4.1-2.7-6.2-1.4c-2.1,1.3-2.7,4.1-1.4,6.2L252.4,99.8z"/>
		<path class="st0" d="M229.7,120.6c-0.9,2.3,0.2,4.9,2.5,5.8l14.9,6.1c0.6,0.2,1.1,0.3,1.7,0.3c1.8,0,3.4-1.1,4.1-2.8
			c0.9-2.3-0.2-4.9-2.5-5.8l-14.9-6.1C233.3,117.2,230.6,118.3,229.7,120.6z"/>
		<path class="st0" d="M215.8,73.6c0.5,0,1-0.1,1.5-0.3l14.9-5.3c2.3-0.8,3.5-3.4,2.7-5.7c-0.8-2.3-3.4-3.5-5.7-2.7l-14.9,5.3
			c-2.3,0.8-3.5,3.4-2.7,5.7C212.2,72.5,214,73.6,215.8,73.6z"/>
		<path class="st0" d="M162.3,57.1l17.3,2.4c0.2,0,0.4,0,0.6,0c2.2,0,4.1-1.6,4.4-3.9c0.3-2.4-1.4-4.7-3.8-5l-17.3-2.4
			c-2.4-0.3-4.7,1.4-5,3.8C158.2,54.5,159.9,56.8,162.3,57.1z"/>
		<path class="st0" d="M174.5,72.2c-27.9,0-49.8,13.2-49.8,30.1c0,16.9,21.9,30.1,49.8,30.1c27.9,0,49.8-13.2,49.8-30.1
			C224.3,85.4,202.4,72.2,174.5,72.2z M174.5,122.7c-24,0-40.1-10.5-40.1-20.4s16.1-20.4,40.1-20.4c24,0,40.1,10.5,40.1,20.4
			S198.5,122.7,174.5,122.7z"/>
		<path class="st0" d="M111.5,170.9c-5.3,0-9.7,4.3-9.7,9.7c0,5.3,4.3,9.7,9.7,9.7c5.3,0,9.7-4.3,9.7-9.7
			C121.2,175.2,116.9,170.9,111.5,170.9z"/>
		<path class="st0" d="M234.9,170.9c-5.3,0-9.7,4.3-9.7,9.7c0,5.3,4.3,9.7,9.7,9.7c5.3,0,9.7-4.3,9.7-9.7
			C244.6,175.2,240.2,170.9,234.9,170.9z"/>
		<path class="st0" d="M191.5,187.3h-38.3c-2.9,0-5.3,2.4-5.3,5.3c0,13.5,11,24.4,24.4,24.4c13.5,0,24.4-11,24.4-24.4
			C196.7,189.7,194.4,187.3,191.5,187.3z M172.3,206.5c-5.8,0-10.8-3.6-12.8-8.6h25.7C183.1,202.9,178.1,206.5,172.3,206.5z"/>
	</g>
</g>
</svg>
